Coordinates
version=1
nRows=12
nColumns=24
inDegrees=yes

Units are S.I. units (second, meters, Newtons, ...)
Angles are in degrees.

endheader
time	pelvis_tilt	pelvis_list	pelvis_rotation	pelvis_tx	pelvis_ty	pelvis_tz	hip_flexion_r	hip_adduction_r	hip_rotation_r	knee_angle_r	ankle_angle_r	subtalar_angle_r	mtp_angle_r	hip_flexion_l	hip_adduction_l	hip_rotation_l	knee_angle_l	ankle_angle_l	subtalar_angle_l	mtp_angle_l	lumbar_extension	lumbar_bending	lumbar_rotation
      1.06650000	      1.45946016	     -3.60520504	      5.08247477	      0.40952543	      1.03817940	      0.31644101	      4.29379567	     10.33312166	     -0.98404675	    -10.78253204	      4.06845612	    -12.47057456	      5.16457279	     12.34044728	     -6.60443636	     -1.99915861	    -54.70745484	      6.99524035	      5.59153469	      5.83511081	     -6.53356190	      3.19312866	     -4.41976679
      1.07066667	      1.45207209	     -3.52168254	      4.91618963	      0.41412984	      1.03855132	      0.31703005	      3.86920601	     10.29561124	     -0.85084428	    -10.51959706	      4.12732860	    -12.37224009	      5.14485636	     12.79136005	     -6.49794100	     -2.07428220	    -54.12071495	      7.46813011	      5.38287266	      5.81479639	     -6.55742174	      3.05102341	     -4.34342131
      1.07483333	      1.49069089	     -3.41567072	      4.74466505	      0.41872586	      1.03898815	      0.31763041	      3.38038741	     10.23962106	     -0.66365005	    -10.23404382	      4.21007042	    -12.28287196	      5.10010909	     13.16607325	     -6.36666401	     -2.14299763	    -53.46714350	      7.86065118	      5.15929616	      5.75934426	     -6.65279761	      2.88712463	     -4.14012163
      1.07900000	      1.48352407	     -3.32841472	      4.58063469	      0.42332309	      1.03931000	      0.31822195	      2.95738963	     10.19484664	     -0.52796067	     -9.97308884	      4.27483052	    -12.18716723	      5.07769182	     13.59252521	     -6.25629364	     -2.21429525	    -52.80129594	      8.28525676	      4.93358678	      5.73401430	     -6.67898156	      2.72519365	     -4.05933433
      1.08316667	      1.52601761	     -3.22442542	      4.41563852	      0.42790615	      1.03970488	      0.31879619	      2.46839114	     10.13525274	     -0.34769705	     -9.69072513	      4.35831175	    -12.10343363	      5.02721593	     13.93789691	     -6.12105776	     -2.26602756	    -52.06374007	      8.60821119	      4.67395849	      5.66911651	     -6.77177886	      2.57250989	     -3.86312760
      1.08733333	      1.51879435	     -3.12826064	      4.25119309	      0.43248283	      1.03997995	      0.31937737	      2.05075692	     10.07731037	     -0.19460963	     -9.44045919	      4.43531351	    -12.02566753	      4.98752402	     14.33418298	     -5.99287185	     -2.31733218	    -51.30877741	      8.95049996	      4.42375743	      5.61849693	     -6.80338234	      2.41502606	     -3.74740216
      1.09150000	      1.52395908	     -3.04390449	      4.09908228	      0.43705741	      1.04022909	      0.31993671	      1.61234046	     10.03113629	     -0.04276920	     -9.16710120	      4.48519807	    -11.94854557	      4.87363791	     14.71125459	     -5.87534061	     -2.35355424	    -50.52415359	      9.24791645	      4.14381642	      5.46880614	     -6.84533499	      2.25998902	     -3.53736122
      1.09566667	      1.53397104	     -2.94930220	      3.94614844	      0.44162633	      1.04047318	      0.32049755	      1.17393800	      9.97340489	      0.11779049	     -8.90958490	      4.59919707	    -11.87737570	      4.81972234	     15.06416173	     -5.74547692	     -2.38748051	    -49.68948446	      9.49716136	      3.87364194	      5.39223566	     -6.89266046	      2.09687870	     -3.45602697
      1.09983333	      1.49220227	     -2.87377825	      3.79882617	      0.44619004	      1.04056875	      0.32104691	      0.80369558	      9.92966519	      0.25772566	     -8.66958571	      4.68548051	    -11.80018213	      4.79516164	     15.47707132	     -5.63409849	     -2.41496040	    -48.85350060	      9.78816319	      3.63460411	      5.35639306	     -6.88443549	      1.94390600	     -3.39915805
      1.10400000	      1.49392240	     -2.77619226	      3.63836019	      0.45074108	      1.04075075	      0.32158025	      0.39100143	      9.86141067	      0.42047745	     -8.44653336	      4.78192723	    -11.74558726	      4.75133561	     15.80559121	     -5.48708127	     -2.42188514	    -47.93304019	      9.94898949	      3.30355316	      5.28761118	     -6.93055688	      1.79999351	     -3.26206960
      1.10816667	      1.48942488	     -2.69791885	      3.50507558	      0.45530762	      1.04087864	      0.32207051	     -0.02857639	      9.81208182	      0.56695879	     -8.18374453	      4.86036819	    -11.68043344	      4.67272615	     16.14425340	     -5.35768216	     -2.40803991	    -46.99997879	     10.06928068	      2.97256596	      5.16557297	     -6.95380440	      1.66087579	     -3.09856639
      1.11233333	      1.45754160	     -2.61869190	      3.35402739	      0.45985091	      1.04092016	      0.32257900	     -0.39462358	      9.75769252	      0.71585158	     -7.97310421	      4.96455813	    -11.63171216	      4.62472973	     16.49889006	     -5.23103663	     -2.41068612	    -46.03985147	     10.21745307	      2.68199038	      5.08589871	     -6.96108793	      1.51914123	     -3.01853517
